<?xml version="1.0" encoding="UTF-8"?>
<svg version="1.1" xmlns="http://www.w3.org/2000/svg" width="488" height="487">
<path d="M0 0 C161.04 0 322.08 0 488 0 C488 160.71 488 321.42 488 487 C326.96 487 165.92 487 0 487 C0 326.29 0 165.58 0 0 Z " fill="#FEFEFE" transform="translate(0,0)"/>
<path d="M0 0 C0 0.66 0 1.32 0 2 C-1.37742615 3.35865784 -1.37742615 3.35865784 -3.33764648 4.97094727 C-8.69636167 9.53169192 -13.63085902 14.48608983 -18.59765625 19.46484375 C-19.60063903 20.46715081 -20.60377003 21.46930956 -21.60704041 22.47132874 C-23.69709138 24.55991534 -25.78534888 26.65027388 -27.87231445 28.74194336 C-30.5269787 31.4023041 -33.18610884 34.05814842 -35.84661198 36.71266842 C-37.91524949 38.77766606 -39.98146699 40.84507204 -42.04699516 42.9131794 C-43.02572005 43.89256411 -44.00516806 44.87122681 -44.98539925 45.84910393 C-49.97605549 50.83039817 -54.83812831 55.85223852 -59.43171692 61.20265198 C-61.86998574 63.99705669 -64.46339089 66.62558278 -67.08203125 69.25 C-67.62228439 69.79358154 -68.16253754 70.33716309 -68.71916199 70.8972168 C-69.84460043 72.02765891 -70.97134095 73.15680616 -72.09936523 74.28466797 C-73.83150876 76.01903314 -75.5554531 77.76129591 -77.27929688 79.50390625 C-78.37972022 80.60725787 -79.48061416 81.71014039 -80.58203125 82.8125 C-81.09659378 83.33424805 -81.61115631 83.85599609 -82.14131165 84.39355469 C-85.77113122 88 -85.77113122 88 -88 88 C-89.3046875 86.671875 -89.3046875 86.671875 -90.875 84.75 C-95.89702718 78.82166218 -101.47001718 73.44825893 -107 68 C-105.32351088 63.92011761 -102.46343943 60.90234616 -99.54858398 57.67089844 C-98.98992142 57.04608582 -98.43125885 56.42127319 -97.85566711 55.77752686 C-92.63907685 49.97726029 -87.30200279 44.2905658 -81.92634487 38.63778305 C-78.33026547 34.85182576 -74.78258937 31.03892923 -71.3269043 27.12402344 C-49.39673032 2.35634471 -33.11007659 -5.18539909 0 0 Z " fill="#FFBD5B" transform="translate(287,120)"/>
<path d="M0 0 C-4.02748053 4.83298806 -8.24379413 9.38110004 -12.7109375 13.80859375 C-13.32393707 14.42017838 -13.93693665 15.031763 -14.56851196 15.66188049 C-16.50164564 17.58947559 -18.43824987 19.51353928 -20.375 21.4375 C-21.69684699 22.75432404 -23.01846372 24.07137926 -24.33984375 25.38867188 C-27.55724299 28.59512373 -30.77775681 31.79841629 -34 35 C-32.52172422 40.46450478 -28.73388367 43.63002097 -24.8046875 47.453125 C-24.09724396 48.15395203 -23.38980042 48.85477905 -22.66091919 49.57684326 C-20.40594414 51.80845118 -18.14103193 54.02962513 -15.875 56.25 C-13.60361357 58.48638301 -11.33436194 60.72487517 -9.06765747 62.96600342 C-7.65742735 64.35918364 -6.24413704 65.74927394 -4.8276062 67.13604736 C-4.19339752 67.76049744 -3.55918884 68.38494751 -2.90576172 69.02832031 C-2.34331757 69.57949524 -1.78087341 70.13067017 -1.2013855 70.69854736 C0 72 0 72 0 73 C-31.2786842 78.59743966 -31.2786842 78.59743966 -43.7666626 71.40698242 C-56.67405546 62.16078063 -67.15146667 49.33949436 -77 37 C-61.42278805 3.87516996 -33.69226842 -5.29566321 0 0 Z " fill="#FEBD59" transform="translate(287,182)"/>
<path d="M0 0 C1.23657227 1.26000977 1.23657227 1.26000977 2.75390625 3.12890625 C6.18681191 7.16704288 9.83254245 10.92033675 13.58984375 14.65234375 C14.18278229 15.24197906 14.77572083 15.83161438 15.3866272 16.43911743 C17.23497976 18.27387985 19.08582507 20.10609096 20.9375 21.9375 C23.40778222 24.38127773 25.87478217 26.82830138 28.33984375 29.27734375 C28.90847641 29.83767807 29.47710907 30.39801239 30.06297302 30.97532654 C31.39424165 32.29810528 32.70005175 33.64642905 34 35 C34 35.33 34 35.66 34 36 C-4.6281893 38.60802469 -4.6281893 38.60802469 -13.0625 32.66015625 C-16.78634013 29.20922854 -19.52358482 25.41653662 -22 21 C-20.72243 18.1641213 -19.45064065 16.23285133 -17.13671875 14.16015625 C-16.57919922 13.65419922 -16.02167969 13.14824219 -15.44726562 12.62695312 C-14.86654297 12.11068359 -14.28582031 11.59441406 -13.6875 11.0625 C-12.54466469 10.03355994 -11.40272567 9.00362346 -10.26171875 7.97265625 C-9.7104834 7.47781738 -9.15924805 6.98297852 -8.59130859 6.47314453 C-7.07389617 5.06840894 -5.6385772 3.61252823 -4.20703125 2.12109375 C-2 0 -2 0 0 0 Z " fill="#FE6E4E" transform="translate(253,219)"/>
<path d="M0 0 C2.97 -0.0825 5.94 -0.165 9 -0.25 C10.37865234 -0.30462402 10.37865234 -0.30462402 11.78515625 -0.36035156 C18.57621485 -0.45062721 23.88184803 1.02476333 28.875 5.7890625 C32.13976276 11.11697394 33.11548636 15.79706183 32 22 C29.61060179 26.87069634 26.31539963 29.85335444 22 33 C19.17820723 33.92825914 16.63063856 34.11879028 13.671875 34.09765625 C12.5905127 34.09390991 12.5905127 34.09390991 11.48730469 34.09008789 C10.13233887 34.07643188 10.13233887 34.07643188 8.75 34.0625 C5.8625 34.041875 2.975 34.02125 0 34 C0 22.78 0 11.56 0 0 Z " fill="#FFBF5E" transform="translate(244,295)"/>
<path d="M0 0 C5.0428125 -0.0928125 5.0428125 -0.0928125 10.1875 -0.1875 C11.76374146 -0.22846802 11.76374146 -0.22846802 13.37182617 -0.27026367 C19.60676568 -0.32586338 23.07962139 0.38172952 27.8125 4.625 C29.67800205 8.35600411 29.79773275 11.92431088 29 16 C26.625 19.0625 26.625 19.0625 24 21 C23.34 21 22.68 21 22 21 C22.49371094 21.77085937 22.98742187 22.54171875 23.49609375 23.3359375 C24.13675781 24.33882813 24.77742188 25.34171875 25.4375 26.375 C26.07558594 27.37273437 26.71367187 28.37046875 27.37109375 29.3984375 C29 32 29 32 30 34 C26.52025513 34.55703426 23.45576558 34.77651875 20 34 C17.27552262 31.36598379 15.53339966 28.45326589 14 25 C14 24.34 14 23.68 14 23 C12.02 23 10.04 23 8 23 C8 26.63 8 30.26 8 34 C5.36 34 2.72 34 0 34 C0 22.78 0 11.56 0 0 Z " fill="#FFBF5F" transform="translate(209,295)"/>
<path d="M0 0 C1.134375 0.020625 2.26875 0.04125 3.4375 0.0625 C5.11107195 3.81562449 6.78339444 7.56930298 8.45458984 11.32348633 C9.0226107 12.59902776 9.59096541 13.87442057 10.15966797 15.1496582 C10.97973185 16.98869813 11.79847321 18.82832761 12.6171875 20.66796875 C13.10944824 21.77293701 13.60170898 22.87790527 14.10888672 24.01635742 C17.4375 31.64794653 17.4375 31.64794653 17.4375 35.0625 C14.7975 35.0625 12.1575 35.0625 9.4375 35.0625 C8.7775 32.7525 8.1175 30.4425 7.4375 28.0625 C2.1575 28.0625 -3.1225 28.0625 -8.5625 28.0625 C-8.8925 29.7125 -9.2225 31.3625 -9.5625 33.0625 C-9.8925 33.7225 -10.2225 34.3825 -10.5625 35.0625 C-13.2025 35.0625 -15.8425 35.0625 -18.5625 35.0625 C-16.20153042 27.48169971 -13.16349608 20.31259014 -9.9375 13.0625 C-9.43476563 11.91910156 -8.93203125 10.77570313 -8.4140625 9.59765625 C-4.20132894 0.07370753 -4.20132894 0.07370753 0 0 Z " fill="#FFC061" transform="translate(186.5625,293.9375)"/>
<path d="M0 0 C8.58 0 17.16 0 26 0 C26 2.31 26 4.62 26 7 C20.06 7 14.12 7 8 7 C8 8.98 8 10.96 8 13 C13.28 13 18.56 13 24 13 C24 15.31 24 17.62 24 20 C18.72 20 13.44 20 8 20 C8 22.31 8 24.62 8 27 C13.94 27 19.88 27 26 27 C26 29.31 26 31.62 26 34 C17.42 34 8.84 34 0 34 C0 22.78 0 11.56 0 0 Z " fill="#FFBF5F" transform="translate(282,295)"/>
<path d="M0 0 C2.31 0 4.62 0 7 0 C7.33 4.29 7.66 8.58 8 13 C8.75023437 12.0615625 9.50046875 11.123125 10.2734375 10.15625 C18.36790153 0.46601261 18.36790153 0.46601261 23.0234375 -0.86328125 C25.47383737 -0.81764343 27.63052443 -0.6133377 30 0 C27.00260985 3.59261656 24.0165749 7.02463516 20.5625 10.1875 C19.716875 11.115625 18.87125 12.04375 18 13 C18.28624758 16.26404619 19.75322882 18.3100436 21.72265625 20.85546875 C22.26083984 21.55994141 22.79902344 22.26441406 23.35351562 22.99023438 C23.91748047 23.71533203 24.48144531 24.44042969 25.0625 25.1875 C26.18036167 26.63780181 27.29635561 28.08954583 28.41015625 29.54296875 C28.90652588 30.18258545 29.40289551 30.82220215 29.91430664 31.48120117 C31 33 31 33 31 34 C27.42141515 34.80686255 24.55467906 34.99314685 21 34 C17.31126467 30.40307799 14.55817683 26.46136152 12 22 C12 21.34 12 20.68 12 20 C9.9291485 21.12393047 9.9291485 21.12393047 8 23 C7.30250411 25.72489473 7.30250411 25.72489473 7.25 28.6875 C7.19328125 29.68136719 7.1365625 30.67523438 7.078125 31.69921875 C7.05234375 32.45847656 7.0265625 33.21773438 7 34 C4.69 34 2.38 34 0 34 C0 22.78 0 11.56 0 0 Z " fill="#FFBE5D" transform="translate(350,295)"/>
<path d="M0 0 C1.914962 0.96429581 3.77960736 2.02724031 5.6328125 3.10546875 C4.6428125 5.08546875 3.6528125 7.06546875 2.6328125 9.10546875 C2.07078125 8.95207031 1.50875 8.79867188 0.9296875 8.640625 C-1.42557628 8.09186456 -3.71266854 7.79049276 -6.1171875 7.54296875 C-6.91640625 7.45917969 -7.715625 7.37539063 -8.5390625 7.2890625 C-9.14234375 7.22847656 -9.745625 7.16789062 -10.3671875 7.10546875 C-10.3671875 8.42546875 -10.3671875 9.74546875 -10.3671875 11.10546875 C-9.55894531 11.33621094 -8.75070313 11.56695312 -7.91796875 11.8046875 C3.49588711 15.28804761 3.49588711 15.28804761 6.6328125 20.10546875 C7.17561005 23.90505162 6.95001711 26.28446859 5.5703125 29.85546875 C2.9885221 32.85367695 0.44945436 34.29933692 -3.3671875 35.10546875 C-10.08276334 35.37495414 -14.84423077 33.82746133 -20.3671875 30.10546875 C-19.5546875 27.66796875 -19.5546875 27.66796875 -18.3671875 25.10546875 C-17.3771875 24.77546875 -16.3871875 24.44546875 -15.3671875 24.10546875 C-14.4390625 24.57984375 -13.5109375 25.05421875 -12.5546875 25.54296875 C-9.14736575 27.21322451 -7.10112826 27.3721788 -3.3671875 27.10546875 C-3.0371875 25.78546875 -2.7071875 24.46546875 -2.3671875 23.10546875 C-3.25921875 22.7909375 -4.15125 22.47640625 -5.0703125 22.15234375 C-6.24078125 21.724375 -7.41125 21.29640625 -8.6171875 20.85546875 C-9.77734375 20.4378125 -10.9375 20.02015625 -12.1328125 19.58984375 C-15.38670985 18.09650922 -17.20030918 16.93342859 -19.3671875 14.10546875 C-20.16643944 11.02421473 -20.02081033 8.21294678 -19.3671875 5.10546875 C-14.50680836 -1.19988797 -7.44341125 -2.81277422 0 0 Z " fill="#FFBF60" transform="translate(127.3671875,294.89453125)"/>
<path d="M0 0 C3.0625 1.6875 3.0625 1.6875 5.0625 4.6875 C3.7425 6.3375 2.4225 7.9875 1.0625 9.6875 C0.5675 9.378125 0.0725 9.06875 -0.4375 8.75 C-3.88854717 7.28330495 -7.17914481 6.61292946 -10.9375 6.6875 C-13.93545835 8.02701331 -15.46529875 8.7430975 -16.9375 11.6875 C-17.46951964 16.12681139 -17.41445616 19.671376 -15.5 23.75 C-12.21761464 26.23180357 -10.07467666 26.17372598 -6.05859375 26.05859375 C-3.64417627 25.78301245 -3.64417627 25.78301245 -0.9375 23.6875 C2.02326291 24.04638035 2.90908021 24.53408021 5.0625 26.6875 C5.0625 27.6775 5.0625 28.6675 5.0625 29.6875 C-1.05218673 33.26401488 -5.62799306 35.45180206 -12.9375 34.6875 C-18.14896335 32.74597444 -22.06255441 29.66109791 -25.05078125 24.921875 C-27.13634027 19.66663378 -27.05649445 12.7061827 -25.09765625 7.421875 C-19.54528674 -1.17775454 -9.29714755 -3.62627332 0 0 Z " fill="#FFC061" transform="translate(338.9375,295.3125)"/>
<path d="M0 0 C9.57 0 19.14 0 29 0 C29 2.31 29 4.62 29 7 C25.37 7 21.74 7 18 7 C18 15.91 18 24.82 18 34 C15.69 34 13.38 34 11 34 C11 25.09 11 16.18 11 7 C7.37 7 3.74 7 0 7 C0 4.69 0 2.38 0 0 Z " fill="#FFBE5D" transform="translate(137,295)"/>
<path d="M0 0 C10 0 10 0 13.0625 2.375 C15.87713202 6.18837242 16.55044624 8.2294659 16 13 C14.18689858 15.92937654 12.12704101 18.43647949 9 20 C6.03 20 3.06 20 0 20 C0 13.4 0 6.8 0 0 Z " fill="#FFFDFC" transform="translate(252,302)"/>
<path d="M0 0 C1.875 1.125 1.875 1.125 3 3 C3.43117272 7.05302361 2.9424209 9.47936212 1 13 C1 13.99 1 14.98 1 16 C-2.99870861 14.07469586 -6.84296719 12.15703281 -10 9 C-9.8125 5.5 -9.8125 5.5 -9 2 C-5.53076119 -0.31282587 -4.07794425 -0.42478586 0 0 Z " fill="#FF9E62" transform="translate(289,353)"/>
<path d="M0 0 C1.79133978 -0.05391993 3.58313899 -0.09275571 5.375 -0.125 C6.37273437 -0.14820313 7.37046875 -0.17140625 8.3984375 -0.1953125 C11 0 11 0 13 2 C13.25 4.5 13.25 4.5 13 7 C11 9 11 9 8.3984375 9.1953125 C7.40070313 9.17210937 6.40296875 9.14890625 5.375 9.125 C3.87066406 9.09792969 3.87066406 9.09792969 2.3359375 9.0703125 C1.56507813 9.04710937 0.79421875 9.02390625 0 9 C0 6.03 0 3.06 0 0 Z " fill="#FFFDFB" transform="translate(217,302)"/>
<path d="M0 0 C0.99 0 1.98 0 3 0 C4.32 2.31 5.64 4.62 7 7 C7.33 4.69 7.66 2.38 8 0 C8.99 0 9.98 0 11 0 C11 4.29 11 8.58 11 13 C7 12 7 12 4.75 8.9375 C3.88375 7.4834375 3.88375 7.4834375 3 6 C2.67 8.31 2.34 10.62 2 13 C1.34 13 0.68 13 0 13 C0 8.71 0 4.42 0 0 Z " fill="#FF9F63" transform="translate(331,353)"/>
<path d="M0 0 C1.32 0 2.64 0 4 0 C4.67057887 1.7902061 5.3363469 3.58221489 6 5.375 C6.556875 6.87160156 6.556875 6.87160156 7.125 8.3984375 C8 11 8 11 8 13 C7.01 13 6.02 13 5 13 C5 12.01 5 11.02 5 10 C2.52733235 10.34444881 2.52733235 10.34444881 0 11 C-0.33 11.66 -0.66 12.32 -1 13 C-1.99 13 -2.98 13 -4 13 C-3.52140759 11.39566191 -3.04210442 9.79153584 -2.5625 8.1875 C-2.29566406 7.29417969 -2.02882813 6.40085937 -1.75390625 5.48046875 C-1.19612127 3.64526945 -0.60655425 1.81966274 0 0 Z " fill="#FF9C5E" transform="translate(317,353)"/>
<path d="M0 0 C1.32 0.33 2.64 0.66 4 1 C5.046875 2.9609375 5.046875 2.9609375 5.75 5.375 C5.99234375 6.16648437 6.2346875 6.95796875 6.484375 7.7734375 C7 10 7 10 7 13 C6.01 13 5.02 13 4 13 C4 12.01 4 11.02 4 10 C2.35 10 0.7 10 -1 10 C-1.33 10.99 -1.66 11.98 -2 13 C-2.99 12.67 -3.98 12.34 -5 12 C-3.35 8.04 -1.7 4.08 0 0 Z " fill="#FFA973" transform="translate(170,353)"/>
<path d="M0 0 C0.99 0 1.98 0 3 0 C3.33 3.3 3.66 6.6 4 10 C4.99 10 5.98 10 7 10 C7.33 6.7 7.66 3.4 8 0 C8.99 0 9.98 0 11 0 C11.08086147 1.79093191 11.13912702 3.58289628 11.1875 5.375 C11.22230469 6.37273437 11.25710938 7.37046875 11.29296875 8.3984375 C11.19628906 9.25695312 11.09960938 10.11546875 11 11 C8 13 8 13 4.375 12.75 C3.26125 12.5025 2.1475 12.255 1 12 C-0.26237731 9.47524538 -0.09856404 7.68799534 -0.0625 4.875 C-0.05347656 3.96492188 -0.04445313 3.05484375 -0.03515625 2.1171875 C-0.02355469 1.41851562 -0.01195312 0.71984375 0 0 Z " fill="#FF9E63" transform="translate(263,353)"/>
<path d="M0 0 C1.9375 0.375 1.9375 0.375 4 1 C4.33 1.66 4.66 2.32 5 3 C5.66 2.01 6.32 1.02 7 0 C7.99 0 8.98 0 10 0 C9.649375 0.7425 9.29875 1.485 8.9375 2.25 C7.64280941 6.04775907 8.39883734 7.72694967 10.0625 11.25 C10.371875 11.8275 10.68125 12.405 11 13 C9.68 13 8.36 13 7 13 C6.67 11.68 6.34 10.36 6 9 C5.34 9 4.68 9 4 9 C3.67 10.32 3.34 11.64 3 13 C1.68 12.67 0.36 12.34 -1 12 C-0.484375 11.443125 0.03125 10.88625 0.5625 10.3125 C2.27060758 8.08723079 2.27060758 8.08723079 1.75 5.4375 C1.19004371 3.61764204 0.60211577 1.80634732 0 0 Z " fill="#FF9D61" transform="translate(205,353)"/>
<path d="M0 0 C0.99 0 1.98 0 3 0 C3.33 3.3 3.66 6.6 4 10 C5.32 10 6.64 10 8 10 C8 6.7 8 3.4 8 0 C8.66 0 9.32 0 10 0 C10.05391993 1.79133978 10.09275571 3.58313899 10.125 5.375 C10.14820313 6.37273437 10.17140625 7.37046875 10.1953125 8.3984375 C10 11 10 11 8 13 C5 13.25 5 13.25 2 13 C0 11 0 11 -0.1953125 8.3984375 C-0.17210937 7.40070313 -0.14890625 6.40296875 -0.125 5.375 C-0.10695312 4.37210937 -0.08890625 3.36921875 -0.0703125 2.3359375 C-0.04710937 1.56507813 -0.02390625 0.79421875 0 0 Z " fill="#FF9B5D" transform="translate(247,353)"/>
<path d="M0 0 C0.66 0 1.32 0 2 0 C2 3.3 2 6.6 2 10 C3.32 10 4.64 10 6 10 C6.33 6.7 6.66 3.4 7 0 C7.99 0 8.98 0 10 0 C10.05391993 1.79133978 10.09275571 3.58313899 10.125 5.375 C10.14820313 6.37273437 10.17140625 7.37046875 10.1953125 8.3984375 C10 11 10 11 8 13 C5 13.25 5 13.25 2 13 C0 11 0 11 -0.1953125 8.3984375 C-0.17210937 7.40070313 -0.14890625 6.40296875 -0.125 5.375 C-0.10695313 4.37210937 -0.08890625 3.36921875 -0.0703125 2.3359375 C-0.04710937 1.56507813 -0.02390625 0.79421875 0 0 Z " fill="#FF9757" transform="translate(298,353)"/>
<path d="M0 0 C0.66 0 1.32 0 2 0 C2 1.98 2 3.96 2 6 C3.98 6 5.96 6 8 6 C8 4.02 8 2.04 8 0 C8.66 0 9.32 0 10 0 C10 4.29 10 8.58 10 13 C9.34 13 8.68 13 8 13 C8 11.35 8 9.7 8 8 C6.02 8 4.04 8 2 8 C2 9.65 2 11.3 2 13 C1.34 13 0.68 13 0 13 C0 8.71 0 4.42 0 0 Z " fill="#FF924F" transform="translate(230,353)"/>
<path d="M0 0 C3.3 0 6.6 0 10 0 C10 0.66 10 1.32 10 2 C8.68 2 7.36 2 6 2 C6 5.63 6 9.26 6 13 C5.01 13 4.02 13 3 13 C3 9.37 3 5.74 3 2 C2.01 2 1.02 2 0 2 C0 1.34 0 0.68 0 0 Z " fill="#FF9A5C" transform="translate(182,353)"/>
<path d="M0 0 C0.66 0 1.32 0 2 0 C5 6.625 5 6.625 5 10 C2.36 10 -0.28 10 -3 10 C-2.39009109 6.44219804 -1.4216319 3.3171411 0 0 Z " fill="#FFF3E2" transform="translate(185,305)"/>
<path d="M0 0 C2.97 0 5.94 0 9 0 C7.58192622 4.47238653 5.88695626 8.71146306 4 13 C3.01 13 2.02 13 1 13 C1.47550561 11.51965236 1.95551216 10.04074979 2.4375 8.5625 C2.70433594 7.73878906 2.97117187 6.91507812 3.24609375 6.06640625 C4 4 4 4 5 3 C3.35 2.67 1.7 2.34 0 2 C0 1.34 0 0.68 0 0 Z " fill="#FFA065" transform="translate(125,353)"/>
<path d="M0 0 C0.99 0 1.98 0 3 0 C3 3.63 3 7.26 3 11 C4.65 11 6.3 11 8 11 C8 11.66 8 12.32 8 13 C5.36 13 2.72 13 0 13 C0 8.71 0 4.42 0 0 Z " fill="#FF9D60" transform="translate(153,353)"/>
<path d="M0 0 C2.64 0 5.28 0 8 0 C8 0.66 8 1.32 8 2 C6.02 2 4.04 2 2 2 C2 3.32 2 4.64 2 6 C3.32 6 4.64 6 6 6 C6 6.66 6 7.32 6 8 C4.68 8 3.36 8 2 8 C2 9.65 2 11.3 2 13 C1.34 13 0.68 13 0 13 C0 8.71 0 4.42 0 0 Z " fill="#FF924F" transform="translate(140,353)"/>
<path d="M0 0 C1 2 1 2 0.1875 5.4375 C-0.99208564 8.13369576 -1.71781651 8.86934269 -4.4296875 10.125 C-6.94217746 10.86522367 -9.43072628 11.4938579 -12 12 C-8.39424999 7.41086363 -4.52615993 3.67832017 0 0 Z " fill="#C0583D" transform="translate(243,227)"/>
<path d="M0 0 C0.99 0 1.98 0 3 0 C4.32 2.64 5.64 5.28 7 8 C6.01 8 5.02 8 4 8 C3.67 7.34 3.34 6.68 3 6 C2.67 8.31 2.34 10.62 2 13 C1.34 13 0.68 13 0 13 C0 8.71 0 4.42 0 0 Z " fill="#FF9656" transform="translate(331,353)"/>
<path d="M0 0 C3.69230769 0.69230769 3.69230769 0.69230769 5 2 C5.04063832 3.66617115 5.042721 5.33388095 5 7 C3.34385343 7.38218767 1.67542976 7.71395102 0 8 C-1 7 -1 7 -1.125 4 C-1 1 -1 1 0 0 Z " fill="#FFF9F6" transform="translate(284,355)"/>
<path d="M0 0 C1.32 0 2.64 0 4 0 C4.66 2.31 5.32 4.62 6 7 C0.25 8.125 0.25 8.125 -2 7 C-1.34 4.69 -0.68 2.38 0 0 Z " fill="#FFAE7D" transform="translate(317,353)"/>
<path d="M0 0 C0.66 0 1.32 0 2 0 C2 3.3 2 6.6 2 10 C3.32 10.33 4.64 10.66 6 11 C6 11.66 6 12.32 6 13 C1.125 12.125 1.125 12.125 0 11 C-0.07226502 9.14712498 -0.0838122 7.29166122 -0.0625 5.4375 C-0.05347656 4.42558594 -0.04445313 3.41367187 -0.03515625 2.37109375 C-0.02355469 1.58863281 -0.01195312 0.80617188 0 0 Z " fill="#FF9553" transform="translate(298,353)"/>
<path d="M0 0 C2 2 2 2 2.125 5.125 C2.08375 6.07375 2.0425 7.0225 2 8 C1.484375 7.154375 0.96875 6.30875 0.4375 5.4375 C-0.366875 4.633125 -1.17125 3.82875 -2 3 C-5.70054409 3.0636079 -5.70054409 3.0636079 -9 4 C-8.67 3.01 -8.34 2.02 -8 1 C-5.23749964 -0.38125018 -3.05268901 -0.19079306 0 0 Z " fill="#FF9B5D" transform="translate(289,353)"/>
<path d="M0 0 C0.66 0.33 1.32 0.66 2 1 C2.625 4.0625 2.625 4.0625 3 7 C2.01 7.33 1.02 7.66 0 8 C-2 6 -2 6 -2.125 3.375 C-2.08375 2.59125 -2.0425 1.8075 -2 1 C-1.34 0.67 -0.68 0.34 0 0 Z " fill="#FFAA75" transform="translate(281,356)"/>
<path d="M0 0 C0.99 0 1.98 0 3 0 C3 1.32 3 2.64 3 4 C2.34 4 1.68 4 1 4 C0.34 5.32 -0.32 6.64 -1 8 C-1.93065133 5.39417629 -2.14917407 4.35801776 -1.0625 1.75 C-0.711875 1.1725 -0.36125 0.595 0 0 Z " fill="#FF9B5E" transform="translate(170,353)"/>
<path d="M0 0 C2.97 0 5.94 0 9 0 C8.67 0.99 8.34 1.98 8 3 C5.36 2.67 2.72 2.34 0 2 C0 1.34 0 0.68 0 0 Z " fill="#FF924F" transform="translate(125,353)"/>
<path d="M0 0 C0.33 0 0.66 0 1 0 C1.33 3.96 1.66 7.92 2 12 C1.01 12.33 0.02 12.66 -1 13 C-0.67 8.71 -0.34 4.42 0 0 Z " fill="#FFA975" transform="translate(305,353)"/>
</svg>
